<svg xmlns="http://www.w3.org/2000/svg" enable-background="new 0 0 130 130" viewBox="0 0 130 130"><circle cx="65" cy="65" r="64" fill="#DDDCE0"/><path fill="#C9C8CE" d="M36.73491 10.84677h-5.82764c1.1106-.70062 2.23706-1.37769 3.39234-2.01044h2.4353c.55493 0 1.00513.45001 1.00513 1.00519S37.28984 10.84677 36.73491 10.84677zM63.32801 20.29112c0 .55517.45005 1.00522 1.00522 1.00522h6.32154c.55278 0 1.00516-.45233 1.00516-1.0052 0-.55287-.45238-1.00524-1.00516-1.00524h-6.32154C63.77806 19.2859 63.32801 19.73595 63.32801 20.29112L63.32801 20.29112zM73.69844 20.29112c0 .55517.45005 1.00522 1.00522 1.00522h1.22844c.55278 0 1.00515-.45233 1.00515-1.0052 0-.55287-.45237-1.00524-1.00515-1.00524h-1.22844C74.14849 19.2859 73.69844 19.73595 73.69844 20.29112L73.69844 20.29112zM56.01358 9.84151L56.01358 9.84151c0-.55517-.45005-1.00522-1.00522-1.00522H42.35182c-.55516 0-1.00521.45005-1.00521 1.00522v0c0 .55517.45005 1.00522 1.00521 1.00522h12.65654C55.56353 10.84673 56.01358 10.39668 56.01358 9.84151zM100.29789 19.70913c-.55518 0-1.00513-.45001-1.00513-1.00519s.44995-1.00525 1.00513-1.00525h7.8103c.71777.65454 1.42139 1.32428 2.10864 2.01044H100.29789zM91.20071 18.70403c0 .55517.45005 1.00522 1.00522 1.00522l4.12341 0c.55278 0 1.00515-.45233 1.00515-1.0052 0-.55287-.45237-1.00524-1.00515-1.00524l-4.12341 0C91.65076 17.6988 91.20071 18.14886 91.20071 18.70403L91.20071 18.70403zM118.03129 88.97494h6.30859c-.27344.67627-.55884 1.34583-.85449 2.01044h-5.4541c-.55518 0-1.00513-.45001-1.00513-1.00519C117.02616 89.42495 117.47611 88.97494 118.03129 88.97494zM113.51167 90.98534h.94627c.55517 0 1.00522-.45005 1.00522-1.00522l0 0c0-.55517-.45005-1.00522-1.00522-1.00522h-.94627c-.55514 0-1.00515.45006-1.00515 1.0052v.00005C112.50652 90.53528 112.95653 90.98534 113.51167 90.98534zM29.36021 74.79092c0-.55517-.45005-1.00522-1.00522-1.00522l-16.00727-.00001c-.55296 0-1.00515.45238-1.00515 1.00524 0 .55287.45219 1.0052 1.00515 1.0052H28.355C28.91016 75.79613 29.36021 75.34608 29.36021 74.79092L29.36021 74.79092zM30.92155 74.79092L30.92155 74.79092c0 .55517.45005 1.00522 1.00522 1.00522h4.80804c.55516 0 1.00522-.45005 1.00522-1.00522l0 0c0-.55517-.45005-1.00522-1.00522-1.00522h-4.80804C31.3716 73.7857 30.92155 74.23575 30.92155 74.79092zM112.28523 57.04867c0-.55517-.45005-1.00522-1.00522-1.00522l-16.00727-.00001c-.55296 0-1.00515.45237-1.00515 1.00524 0 .55287.45219 1.0052 1.00515 1.0052l16.00727 0C111.83518 58.05389 112.28523 57.60384 112.28523 57.04867L112.28523 57.04867zM113.84657 57.04867L113.84657 57.04867c0 .55517.45006 1.00522 1.00522 1.00522h4.80804c.55517 0 1.00522-.45005 1.00522-1.00522l0 0c0-.55517-.45005-1.00522-1.00522-1.00522h-4.80804C114.29662 56.04345 113.84657 56.4935 113.84657 57.04867zM77.47416 118.30917h8.95541c.55517 0 1.00522.45005 1.00522 1.00522l0 0c0 .55517-.45005 1.00522-1.00522 1.00522h-8.95541c-.55296 0-1.00533-.45237-1.00533-1.00524S76.9212 118.30917 77.47416 118.30917zM89.67971 118.30917h1.63673c.55517 0 1.00522.45005 1.00522 1.00522l0 0c0 .55517-.45005 1.00522-1.00522 1.00522h-1.63673c-.55296 0-1.00533-.45237-1.00533-1.00524S89.12675 118.30917 89.67971 118.30917zM50.23047 115.06461l-12.75004.00001c-.55516 0-1.00525.45005-1.00529 1.00522l0 0c-.00005.55517.44997 1.00522 1.00513 1.00522l12.75004-.00001c.55296 0 1.00518-.45237 1.00523-1.00524C51.23558 115.51694 50.78343 115.06461 50.23047 115.06461zM33.86259 116.06984c.00004-.55517-.44997-1.00522-1.00513-1.00522h-1.0803c-.55513 0-1.00518.45007-1.00523 1.0052-.00004.55518.44993 1.00524 1.00507 1.00524h1.0803C33.41246 117.07506 33.86254 116.62501 33.86259 116.06984L33.86259 116.06984zM19.78518 37.67091L19.78518 37.67091c0-.55517-.45005-1.00522-1.00522-1.00522h-1.67143c-.55517 0-1.00522.45005-1.00522 1.00522l0 0c0 .55517.45005 1.00522 1.00522 1.00522l1.67143 0C19.33513 38.67613 19.78518 38.22608 19.78518 37.67091zM12.43852 38.67611H6.66801c.30518-.67554.61621-1.3476.94409-2.01044h4.82642c.55518 0 1.00537.45007 1.00537 1.00525S12.99369 38.67611 12.43852 38.67611z"/><path fill="#C9C8CE" d="M105.01713,41.54324v52.6468c0,5.97958-4.8474,10.82699-10.82699,10.82699H41.54295
		c-5.97958,0-10.82699-4.8474-10.82699-10.82699v-52.6468c0-5.97958,4.84741-10.82699,10.82699-10.82699h52.64719
		C100.16972,30.71626,105.01713,35.56366,105.01713,41.54324z"/><path fill="#66B071" d="M102.25713,38.78324v52.6468c0,5.97958-4.8474,10.82699-10.82699,10.82699H38.78294
		c-5.97958,0-10.82699-4.84741-10.82699-10.82699v-52.6468c0-5.97958,4.84741-10.82699,10.82699-10.82699h52.64719
		C97.40972,27.95625,102.25713,32.80366,102.25713,38.78324z"/><path fill="#479E60" d="M102.25565,38.78104v52.64558c0,5.9832-4.85034,10.83354-10.83354,10.83354H38.7856
		c-4.31665,0-8.04855-2.52525-9.79393-6.19189c1.41108,0.66814,2.9799,1.03983,4.64165,1.03983h33.22321
		c16.70487,0,30.24684-13.54197,30.24684-30.24683V33.62854c0-1.66175-0.37125-3.23057-1.03984-4.63213
		C99.72111,30.73249,102.25565,34.45488,102.25565,38.78104z"/><path fill="#FFF" d="M57.20067,79.44026c-1.01987,0-2.03975-0.38927-2.81827-1.16693l-8.96692-8.96605
			c-1.55706-1.55705-1.55706-4.08121-0.00087-5.63741c1.55706-1.55706,4.08035-1.55706,5.63741,0l6.14864,6.14691l19.67984-19.67898
			c1.55533-1.55706,4.08122-1.55706,5.63654,0c1.55706,1.55619,1.55706,4.08035,0,5.63654L60.01894,78.27247
			C59.24128,79.05099,58.22054,79.44026,57.20067,79.44026z"/><path fill="#89CE91" d="M59.71021 31.97631c0 .68673-.56638 1.25333-1.26263 1.25333H42.28542c-.68695 0-1.25311-.5666-1.25311-1.25333 0-.69625.56615-1.26286 1.25311-1.26286h16.16215C59.14382 30.71345 59.71021 31.28006 59.71021 31.97631zM75.22256 31.97631c0 .68673-.56638 1.25333-1.26263 1.25333H63.46069c-.69625 0-1.26263-.5666-1.26263-1.25333 0-.69625.56638-1.26286 1.26263-1.26286h10.49924C74.65619 30.71345 75.22256 31.28006 75.22256 31.97631zM33.0675 59.27855c-.68673 0-1.25334-.56638-1.25334-1.26263V41.85377c0-.68695.56661-1.25311 1.25334-1.25311.69625 0 1.26286.56615 1.26286 1.25311v16.16215C34.33035 58.71217 33.76374 59.27855 33.0675 59.27855zM33.0675 74.79092c-.68673 0-1.25334-.56638-1.25334-1.26263V63.02904c0-.69625.56661-1.26263 1.25334-1.26263.69625 0 1.26286.56638 1.26286 1.26263v10.49925C34.33035 74.22453 33.76374 74.79092 33.0675 74.79092z"/></svg>