<svg xmlns="http://www.w3.org/2000/svg" enable-background="new 0 0 130 130" viewBox="0 0 130 130"><circle cx="65" cy="65" r="64" fill="#FAD553"/><path fill="#FAB941" d="M106.61758 57.90561l11.04468 0c.55517 0 1.00522-.45005 1.00522-1.00522l0 0c0-.55517-.45005-1.00522-1.00522-1.00522l-11.04468 0c-.55296 0-1.00533.45237-1.00533 1.00524C105.61224 57.45328 106.06462 57.90561 106.61758 57.90561zM126.10542 56.90028c0-.55517-.45006-1.00522-1.00523-1.00522l-4.12341 0c-.55278 0-1.00515.45233-1.00515 1.0052s.45237 1.00524 1.00515 1.00524l4.12341 0C125.65536 57.9055 126.10542 57.45545 126.10542 56.90028L126.10542 56.90028zM71.11852 120.15858c0-.55516-.45005-1.00521-1.00522-1.00521h-6.32154c-.55278 0-1.00515.45232-1.00515 1.0052 0 .55286.45237 1.00524 1.00515 1.00524h6.32154C70.66846 121.1638 71.11852 120.71375 71.11852 120.15858L71.11852 120.15858zM73.98644 120.15858L73.98644 120.15858c0 .55518.45005 1.00523 1.00522 1.00523H87.6482c.55517 0 1.00522-.45005 1.00522-1.00522v-.00001c0-.55516-.45005-1.00521-1.00522-1.00521H74.99166C74.43649 119.15337 73.98644 119.60342 73.98644 120.15858zM29.70213 110.29096c.55518 0 1.00513.45001 1.00513 1.00519s-.44995 1.00525-1.00513 1.00525h-7.8103c-.71777-.65454-1.42139-1.32428-2.10864-2.01044H29.70213zM38.79932 111.29607c0-.55517-.45005-1.00522-1.00522-1.00522l-4.1234.00001c-.55278 0-1.00515.45232-1.00515 1.0052s.45237 1.00524 1.00515 1.00524h4.1234C38.34926 112.30129 38.79932 111.85123 38.79932 111.29607L38.79932 111.29607zM11.96873 41.02515H5.66014c.27344-.67627.55884-1.34583.85449-2.01044h5.4541c.55518 0 1.00513.45001 1.00513 1.00519C12.97386 40.57514 12.52391 41.02515 11.96873 41.02515zM16.48836 39.01475h-.94627c-.55517 0-1.00522.45005-1.00522 1.00522l0 0c0 .55517.45005 1.00522 1.00522 1.00522h.94627c.55514 0 1.00515-.45006 1.00515-1.0052v-.00005C17.49351 39.46481 17.04349 39.01475 16.48836 39.01475zM64.91571 24.78773c0 .55517.45006 1.00522 1.00522 1.00522l2.01581.00001c.55296 0 1.00515-.45237 1.00515-1.00524 0-.55287-.45219-1.0052-1.00515-1.0052l-2.01581 0C65.36577 23.78251 64.91571 24.23256 64.91571 24.78773L64.91571 24.78773zM63.35438 24.78773L63.35438 24.78773c0-.55517-.45005-1.00522-1.00522-1.00522l-4.80804 0c-.55516 0-1.00521.45005-1.00521 1.00522v0c0 .55517.45005 1.00522 1.00521 1.00522h4.80804C62.90433 25.79295 63.35438 25.3429 63.35438 24.78773zM40.39109 5.90992h4.52295c.55518 0 1.00513.45007 1.00513 1.00519v.00006c0 .55518-.44995 1.00519-1.00513 1.00519H36.0637C37.47874 7.20148 38.91795 6.52424 40.39109 5.90992zM58.00885 7.92039l-8.95542 0c-.55516 0-1.00522-.45005-1.00522-1.00522v0c0-.55517.45005-1.00522 1.00522-1.00522l8.95542 0c.55296 0 1.00533.45237 1.00533 1.00524S58.56181 7.92039 58.00885 7.92039zM79.76955 14.93548l12.75005 0c.55516 0 1.00525-.45005 1.00529-1.00522v0c.00005-.55517-.44997-1.00522-1.00513-1.00522l-12.75005 0c-.55296 0-1.00518.45237-1.00523 1.00524C78.76443 14.48315 79.21659 14.93548 79.76955 14.93548zM96.13744 13.93025c-.00005.55517.44997 1.00522 1.00513 1.00522h1.08029c.55514 0 1.00519-.45006 1.00523-1.0052.00004-.55518-.44994-1.00524-1.00507-1.00524h-1.08029C96.58756 12.92503 96.13748 13.37508 96.13744 13.93025L96.13744 13.93025zM110.21484 92.32918L110.21484 92.32918c0 .55517.45005 1.00523 1.00522 1.00523h1.67143c.55516 0 1.00522-.45005 1.00522-1.00522l0 0c0-.55517-.45006-1.00522-1.00522-1.00523h-1.67143C110.66489 91.32396 110.21484 91.77401 110.21484 92.32918zM117.5615 91.32398h5.77051c-.30518.67554-.61621 1.3476-.94409 2.01044h-4.82642c-.55518 0-1.00537-.45007-1.00537-1.00525S117.00632 91.32398 117.5615 91.32398zM9.38233 76.29637c.00004-.55517-.44999-1.00522-1.00516-1.00522H6.41131c-.55278 0-1.00519.45232-1.00522 1.0052s.45231 1.00524 1.00509 1.00524h1.96586C8.93221 77.30159 9.38229 76.85154 9.38233 76.29637L9.38233 76.29637zM11.01472 76.29637L11.01472 76.29637c-.00004.55517.44999 1.00522 1.00516 1.00522h5.91962c.55517 0 1.00525-.45006 1.00529-1.00522v-.00001c.00004-.55516-.44999-1.00522-1.00516-1.00522l-5.91962.00001C11.46484 75.29115 11.01476 75.7412 11.01472 76.29637zM88.03758 65.61258v29.22604c0 .52197-.42706.94904-.94904.94904H35.86828c-.52197 0-.94904-.42707-.94904-.94904V43.61847c0-.52839.43045-.94904.94904-.94904H78.0242c.75438 0 1.4717-.32709 1.96637-.89664l4.00794-4.61466c1.42085-1.63594.3168-4.26287-1.85001-4.27276-.01672-.00008-.03343-.00011-.05016-.00011H35.86828c-5.92779 0-10.73321 4.80542-10.73321 10.73322v51.22015c0 5.92779 4.80542 10.73321 10.73321 10.73321h51.23006c5.90944 0 10.72342-4.81386 10.72342-10.73321V62.84193c0-2.40996-2.99151-3.52724-4.57131-1.70731l-4.57521 5.27066C88.26401 66.87901 88.03758 64.98526 88.03758 65.61258z"/><path fill="#FAB941" d="M62.14964,84.91003c-0.05828,0-0.11752-0.00095-0.17677-0.00334
					c-1.47718-0.05303-2.85212-0.77251-3.73882-1.95588L44.24575,64.27441c-1.61955-2.16274-1.18003-5.2289,0.9832-6.84845
					c2.16131-1.62003,5.22842-1.17907,6.84797,0.98272l10.35365,13.82349l37.16267-42.80434
					c1.76956-2.0414,4.86056-2.25877,6.90147-0.48682c2.03996,1.77099,2.25781,4.86103,0.48634,6.901l-41.1375,47.38303
					C64.91291,84.29757,63.56376,84.91003,62.14964,84.91003z"/><path fill="#F34B50" d="M86.33308,66.40807V93.1341c0,0.52197-0.42707,0.94904-0.94904,0.94904H34.16377
					c-0.52197,0-0.94904-0.42706-0.94904-0.94904V41.91396c0-0.52839,0.43045-0.94904,0.94904-0.94904h42.15592
					c0.75438,0,1.47169-0.32709,1.96637-0.89664l4.00793-4.61466c1.42086-1.63594,0.3168-4.26287-1.85001-4.27276
					c-0.01671-0.00008-0.03343-0.00011-0.05016-0.00011H34.16377c-5.92779,0-10.73321,4.80542-10.73321,10.73322V93.1341
					c0,5.92779,4.80542,10.73322,10.73321,10.73322h51.23006c5.90945,0,10.72342-4.81386,10.72342-10.73322V61.13742
					c0-2.40996-2.99151-3.52724-4.5713-1.70731l-4.57522,5.27066C86.55949,65.1745,86.33308,65.78075,86.33308,66.40807z"/><path fill="#F34B50" d="M60.44513,83.20553c-0.05828,0-0.11752-0.00095-0.17677-0.00334
					c-1.47718-0.05303-2.85212-0.77251-3.73882-1.95589L42.54124,62.5699c-1.61955-2.16274-1.18003-5.2289,0.9832-6.84845
					c2.16131-1.62003,5.22842-1.17907,6.84797,0.98272l10.35365,13.8235l37.16267-42.80434
					c1.76956-2.0414,4.86056-2.25877,6.90148-0.48682c2.03996,1.77099,2.25781,4.86104,0.48634,6.901l-41.1375,47.38303
					C63.2084,82.59306,61.85925,83.20553,60.44513,83.20553z"/><path fill="#D13044" d="M94.11937,58.60532c0.04214,0.19064,0.06333,0.39188,0.06333,0.60358v31.99408
				c0,5.91873-4.80669,10.73615-10.72543,10.73615H32.23285c-2.45621,0-4.72216-0.82576-6.53266-2.21284
				c1.95887,2.5198,5.01866,4.13978,8.45973,4.13978h51.23477c5.90813,0,10.72569-4.81742,10.72569-10.73602V61.13585
				C96.12038,59.81236,95.2097,58.87002,94.11937,58.60532z"/><path fill="#D13044" d="M105.27881,34.13427L64.13435,81.52576c-0.92127,1.06926-2.27655,1.68331-3.68457,1.68331
				c-0.06359,0-0.12718,0-0.18017-0.0106c-1.4822-0.05286-2.85868-0.7729-3.7373-1.94801l-0.48726-0.65657
				c0.68837,0.41294,1.47186,0.64597,2.28716,0.67764h0.17991c1.41887,0,2.76356-0.61405,3.69517-1.68344L103.3414,32.2072
				c1.38708-1.58819,1.55639-3.81175,0.60332-5.55865c0.29649,0.15872,0.58238,0.35995,0.84708,0.59299
				C106.8352,29.00964,107.04716,32.10122,105.27881,34.13427z"/><path fill="#FF6C77" d="M92.06487 38.52505c-.18508 0-.37016-.06411-.52009-.19439-.33191-.28745-.36707-.78892-.07962-1.12031l5.82335-6.70843c.28848-.33242.79099-.36551 1.1198-.0791.33191.28745.36706.78892.07961 1.12031l-5.82335 6.70843C92.50741 38.43251 92.28613 38.52505 92.06487 38.52505zM80.50089 51.84472c-.18508 0-.37016-.06411-.52009-.19439-.33191-.28745-.36707-.78893-.07962-1.12031l9.22203-10.62306c.28848-.33242.79099-.36551 1.11979-.0791.33191.28745.36707.78893.07962 1.12032l-9.22202 10.62306C80.94343 51.75218 80.72215 51.84472 80.50089 51.84472zM73.46986 59.94281c-.18508 0-.37016-.06411-.5201-.19439-.3319-.28745-.36706-.78892-.07961-1.12031l4.57224-5.26655c.28848-.33242.78996-.36499 1.1198-.0791.33191.28745.36707.78892.07962 1.12031l-4.57224 5.26655C73.91239 59.85027 73.69112 59.94281 73.46986 59.94281zM63.59022 71.32171c-.18508 0-.37016-.0641-.52009-.19438-.33191-.28745-.36706-.78893-.07962-1.12032l7.50045-8.63886c.28848-.33242.79099-.36551 1.1198-.0791.33191.28745.36707.78892.07962 1.12031l-7.50046 8.63886C64.03276 71.22917 63.81149 71.32171 63.59022 71.32171zM54.55432 33.65258c0 .43319-.35561.7888-.7888.7888H38.18868c-.43319 0-.7888-.35561-.7888-.7888 0-.43346.35561-.78893.7888-.78893h15.57684C54.19871 32.86365 54.55432 33.21912 54.55432 33.65258zM65.54242 33.65258c0 .43319-.35534.7888-.7888.7888h-6.61065c-.44431 0-.79992-.35561-.79992-.7888 0-.43346.35561-.78893.79992-.78893h6.61065C65.18708 32.86365 65.54242 33.21912 65.54242 33.65258zM25.70027 55.65879c.43319 0 .7888.35561.7888.7888v15.57685c0 .43318-.35561.7888-.7888.7888-.43346 0-.78893-.35561-.78893-.7888V56.44758C24.91133 56.0144 25.26681 55.65879 25.70027 55.65879zM25.70027 44.67069c.43319 0 .7888.35534.7888.7888v6.61065c0 .44431-.35561.79992-.7888.79992-.43346 0-.78893-.35561-.78893-.79992v-6.61065C24.91133 45.02603 25.26681 44.67069 25.70027 44.67069z"/></svg>